<svg xmlns="http://www.w3.org/2000/svg" xmlns:xlink="http://www.w3.org/1999/xlink" width="688" height="318" viewBox="0 0 688 318">
  <defs>
    <clipPath id="clip-iPhone_X_XS_1">
      <rect width="688" height="318"/>
    </clipPath>
  </defs>
  <g id="iPhone_X_XS_1" data-name="iPhone X/XS – 1" clip-path="url(#clip-iPhone_X_XS_1)">
    <rect width="688" height="318" fill="rgba(0,0,0,0.7)"/>
    <g id="Group_1" data-name="Group 1" transform="translate(-30 -35)">
      <g id="javascript" transform="translate(100 117)">
        <path id="Path_1" data-name="Path 1" d="M0,0H141.176V141.176H0Z" fill="#f7df1e"/>
        <path id="Path_2" data-name="Path 2" d="M67.312,170.075l10.8-6.538c2.085,3.7,3.981,6.822,8.528,6.822,4.359,0,7.108-1.705,7.108-8.338V116.912h13.267v45.3c0,13.741-8.055,20-19.807,20-10.613,0-16.774-5.5-19.9-12.13m46.914-1.421,10.8-6.254c2.844,4.644,6.54,8.055,13.078,8.055,5.5,0,9-2.749,9-6.539,0-4.549-3.6-6.16-9.666-8.812l-3.316-1.423c-9.572-4.074-15.921-9.191-15.921-19.995,0-9.951,7.581-17.532,19.427-17.532,8.434,0,14.5,2.938,18.858,10.614L146.16,133.4c-2.275-4.075-4.738-5.686-8.529-5.686-3.886,0-6.35,2.464-6.35,5.686,0,3.98,2.464,5.592,8.15,8.056l3.317,1.421c11.278,4.834,17.627,9.761,17.627,20.848,0,11.942-9.382,18.48-21.985,18.48-12.319,0-20.28-5.875-24.165-13.552" transform="translate(-30.191 -52.098)"/>
      </g>
      <text id="Promises" transform="translate(266 244)" fill="rgba(255,255,255,0.9)" font-size="94" font-family="Seravek-Bold, Seravek" font-weight="700"><tspan x="0" y="0">Promises</tspan></text>
    </g>
  </g>
</svg>
